<?xml version="1.0" encoding="iso-8859-1"?>
<!-- Generator: Adobe Illustrator 19.0.0, SVG Export Plug-In . SVG Version: 6.00 Build 0)  -->
<svg version="1.1" id="Layer_1" xmlns="http://www.w3.org/2000/svg" xmlns:xlink="http://www.w3.org/1999/xlink" x="0px" y="0px"
	 viewBox="0 0 370 370" style="enable-background:new 0 0 370 370;" xml:space="preserve">
<g id="XMLID_772_">
	<polygon id="XMLID_69_" style="fill:#78B9EB;" points="15,320 15,0 215,0 275,60 275,320 	"/>
	<polygon id="XMLID_773_" style="fill:#5A8BB0;" points="275,173.75 15,320 275,320 	"/>
	<rect id="XMLID_774_" x="75" y="120" style="fill:#DEDDE0;" width="140" height="20"/>
	<rect id="XMLID_775_" x="75" y="160" style="fill:#DEDDE0;" width="140" height="20"/>
	<rect id="XMLID_776_" x="75" y="80" style="fill:#FFFFFF;" width="70" height="20"/>
	<rect id="XMLID_777_" x="75" y="120" style="fill:#FFFFFF;" width="70" height="20"/>
	<rect id="XMLID_778_" x="75" y="160" style="fill:#FFFFFF;" width="70" height="20"/>
	<g id="XMLID_779_">
		<circle id="XMLID_62_" style="fill:#EEEEEF;" cx="275" cy="290" r="80"/>
		<path id="XMLID_61_" style="fill:#DEDDE0;" d="M275,210c44.183,0,80,35.817,80,80s-35.817,80-80,80"/>
	</g>
	<polygon id="XMLID_780_" style="fill:#1E2E3B;" points="215,0 275,60 215,60 	"/>
	<polygon id="XMLID_781_" style="fill:#FF5023;" points="250,250 250,330 320,290 	"/>
	<polygon id="XMLID_782_" style="fill:#A2001D;" points="275,264.276 275,315.724 320,290 	"/>
</g>
<g>
</g>
<g>
</g>
<g>
</g>
<g>
</g>
<g>
</g>
<g>
</g>
<g>
</g>
<g>
</g>
<g>
</g>
<g>
</g>
<g>
</g>
<g>
</g>
<g>
</g>
<g>
</g>
<g>
</g>
</svg>
