<?xml version="1.0" encoding="iso-8859-1"?>
<!-- Generator: Adobe Illustrator 19.0.0, SVG Export Plug-In . SVG Version: 6.00 Build 0)  -->
<svg version="1.1" id="Layer_1" xmlns="http://www.w3.org/2000/svg" xmlns:xlink="http://www.w3.org/1999/xlink" x="0px" y="0px"
	 viewBox="0 0 370 370" style="enable-background:new 0 0 370 370;" xml:space="preserve">
<g id="XMLID_491_">
	<polygon id="XMLID_75_" style="fill:#78B9EB;" points="15,320 15,0 215,0 275,60 275,320 	"/>
	<polygon id="XMLID_493_" style="fill:#5A8BB0;" points="275,173.75 15,320 275,320 	"/>
	<g id="XMLID_494_">
		<rect id="XMLID_495_" x="75" y="120" style="fill:#DEDDE0;" width="140" height="20"/>
		<rect id="XMLID_496_" x="75" y="160" style="fill:#DEDDE0;" width="140" height="20"/>
		<g id="XMLID_497_">
			<rect id="XMLID_498_" x="75" y="80" style="fill:#FFFFFF;" width="70" height="20"/>
		</g>
		<rect id="XMLID_500_" x="75" y="120" style="fill:#FFFFFF;" width="70" height="20"/>
		<rect id="XMLID_501_" x="75" y="160" style="fill:#FFFFFF;" width="70" height="20"/>
	</g>
	<g id="XMLID_502_">
		<circle id="XMLID_65_" style="fill:#EEEEEF;" cx="275" cy="290" r="80"/>
		<path id="XMLID_64_" style="fill:#DEDDE0;" d="M275,210c44.183,0,80,35.817,80,80s-35.817,80-80,80"/>
	</g>
	<polygon id="XMLID_503_" style="fill:#1E2E3B;" points="215,0 275,60 215,60 	"/>
	<g id="XMLID_504_">
		<path id="XMLID_61_" style="fill:none;stroke:#78B9EB;stroke-width:16;stroke-miterlimit:10;" d="M235,320
			c0-22.092,17.909-40,40-40s40,17.908,40,40"/>
	</g>
	<rect id="XMLID_505_" x="225" y="275" style="fill:#5A8BB0;" width="100" height="9.999"/>
	<circle id="XMLID_506_" style="fill:#FF5023;" cx="275" cy="280" r="20"/>
	<path id="XMLID_507_" style="fill:#A2001D;" d="M275,260c11.046,0,20,8.954,20,20s-8.954,20-20,20"/>
</g>
<g>
</g>
<g>
</g>
<g>
</g>
<g>
</g>
<g>
</g>
<g>
</g>
<g>
</g>
<g>
</g>
<g>
</g>
<g>
</g>
<g>
</g>
<g>
</g>
<g>
</g>
<g>
</g>
<g>
</g>
</svg>
