<?xml version="1.0" encoding="iso-8859-1"?>
<!-- Generator: Adobe Illustrator 19.0.0, SVG Export Plug-In . SVG Version: 6.00 Build 0)  -->
<svg version="1.1" id="Layer_1" xmlns="http://www.w3.org/2000/svg" xmlns:xlink="http://www.w3.org/1999/xlink" x="0px" y="0px"
	 viewBox="0 0 370 370" style="enable-background:new 0 0 370 370;" xml:space="preserve">
<g id="XMLID_508_">
	<g id="XMLID_509_">
		<polygon id="XMLID_73_" style="fill:#78B9EB;" points="15,320 15,0 215,0 275,60 275,320 		"/>
		<polygon id="XMLID_510_" style="fill:#5A8BB0;" points="275,173.75 15,320 275,320 		"/>
		<rect id="XMLID_511_" x="75" y="120" style="fill:#DEDDE0;" width="140" height="20"/>
		<rect id="XMLID_512_" x="75" y="160" style="fill:#DEDDE0;" width="140" height="20"/>
		<rect id="XMLID_515_" x="75" y="80" style="fill:#FFFFFF;" width="70" height="20"/>
		<rect id="XMLID_516_" x="75" y="120" style="fill:#FFFFFF;" width="70" height="20"/>
		<rect id="XMLID_517_" x="75" y="160" style="fill:#FFFFFF;" width="70" height="20"/>
		<polygon id="XMLID_518_" style="fill:#1E2E3B;" points="215,0 275,60 215,60 		"/>
	</g>
	<g id="XMLID_519_">
		<circle id="XMLID_63_" style="fill:#EEEEEF;" cx="275" cy="290" r="80"/>
		<path id="XMLID_62_" style="fill:#DEDDE0;" d="M275,210c44.183,0,80,35.817,80,80s-35.817,80-80,80"/>
	</g>
	<rect id="XMLID_520_" x="265" y="300" style="fill:#1E2E3B;" width="20" height="40"/>
	<circle id="XMLID_521_" style="fill:#78B9EB;" cx="275" cy="280" r="40"/>
	<path id="XMLID_522_" style="fill:#5A8BB0;" d="M275,240c22.091,0,40,17.909,40,40s-17.909,40-40,40"/>
	<circle id="XMLID_523_" style="fill:#EEEEEF;" cx="275" cy="280" r="20"/>
</g>
<g>
</g>
<g>
</g>
<g>
</g>
<g>
</g>
<g>
</g>
<g>
</g>
<g>
</g>
<g>
</g>
<g>
</g>
<g>
</g>
<g>
</g>
<g>
</g>
<g>
</g>
<g>
</g>
<g>
</g>
</svg>
