<?xml version="1.0" encoding="iso-8859-1"?>
<!-- Generator: Adobe Illustrator 19.0.0, SVG Export Plug-In . SVG Version: 6.00 Build 0)  -->
<svg version="1.1" id="Layer_1" xmlns="http://www.w3.org/2000/svg" xmlns:xlink="http://www.w3.org/1999/xlink" x="0px" y="0px"
	 viewBox="0 0 370 370" style="enable-background:new 0 0 370 370;" xml:space="preserve">
<g id="XMLID_56_">
	<polygon id="XMLID_70_" style="fill:#78B9EB;" points="15,320 15,0 215,0 275,60 275,320 	"/>
	<polygon id="XMLID_835_" style="fill:#5A8BB0;" points="275,173.75 15,320 275,320 	"/>
	<rect id="XMLID_836_" x="75" y="120" style="fill:#DEDDE0;" width="140" height="20"/>
	<rect id="XMLID_837_" x="75" y="160" style="fill:#DEDDE0;" width="140" height="20"/>
	<rect id="XMLID_838_" x="75" y="80" style="fill:#FFFFFF;" width="70" height="20"/>
	<rect id="XMLID_839_" x="75" y="120" style="fill:#FFFFFF;" width="70" height="20"/>
	<rect id="XMLID_840_" x="75" y="160" style="fill:#FFFFFF;" width="70" height="20"/>
	<circle id="XMLID_63_" style="fill:#EEEEEF;" cx="275" cy="290" r="80"/>
	<path id="XMLID_62_" style="fill:#DEDDE0;" d="M275,210c44.183,0,80,35.816,80,80s-35.817,80-80,80"/>
	<polygon id="XMLID_841_" style="fill:#1E2E3B;" points="215,0 275,60 215,60 	"/>
	<path id="XMLID_60_" style="fill:#5A8BB0;" d="M300,271.667V260l-25-5l-25,5v11.667c0,7.245,3.086,13.767,8.01,18.333
		c-4.924,4.566-8.01,11.088-8.01,18.333V320l25,5l25-5v-11.667c0-7.245-3.086-13.767-8.01-18.333
		C296.914,285.434,300,278.912,300,271.667z"/>
	<path id="XMLID_842_" style="fill:#1E2E3B;" d="M300,271.667V260l-25-5v70l25-5v-11.667c0-7.245-3.086-13.767-8.01-18.333
		C296.914,285.434,300,278.912,300,271.667z"/>
	<rect id="XMLID_843_" x="250" y="240" style="fill:#78B9EB;" width="50" height="20"/>
	<rect id="XMLID_844_" x="250" y="320" style="fill:#78B9EB;" width="50" height="20"/>
</g>
<g>
</g>
<g>
</g>
<g>
</g>
<g>
</g>
<g>
</g>
<g>
</g>
<g>
</g>
<g>
</g>
<g>
</g>
<g>
</g>
<g>
</g>
<g>
</g>
<g>
</g>
<g>
</g>
<g>
</g>
</svg>
