<?xml version="1.0" encoding="iso-8859-1"?>
<!-- Generator: Adobe Illustrator 19.0.0, SVG Export Plug-In . SVG Version: 6.00 Build 0)  -->
<svg version="1.1" id="Layer_1" xmlns="http://www.w3.org/2000/svg" xmlns:xlink="http://www.w3.org/1999/xlink" x="0px" y="0px"
	 viewBox="0 0 370 370" style="enable-background:new 0 0 370 370;" xml:space="preserve">
<g id="XMLID_524_">
	<g id="XMLID_525_">
		<polygon id="XMLID_75_" style="fill:#78B9EB;" points="15,320 15,0 215,0 275,60 275,320 		"/>
		<polygon id="XMLID_526_" style="fill:#5A8BB0;" points="275,173.75 15,320 275,320 		"/>
		<rect id="XMLID_527_" x="75" y="120" style="fill:#DEDDE0;" width="140" height="20"/>
		<rect id="XMLID_530_" x="75" y="160" style="fill:#DEDDE0;" width="140" height="20"/>
		<rect id="XMLID_531_" x="75" y="80" style="fill:#FFFFFF;" width="69.999" height="20"/>
		<rect id="XMLID_532_" x="75" y="120" style="fill:#FFFFFF;" width="69.999" height="20"/>
		<rect id="XMLID_533_" x="75" y="160" style="fill:#FFFFFF;" width="69.999" height="20"/>
		<polygon id="XMLID_534_" style="fill:#1E2E3B;" points="215,0 275,60 215,60 		"/>
	</g>
	<g id="XMLID_535_">
		<g id="XMLID_536_">
			<circle id="XMLID_65_" style="fill:#EEEEEF;" cx="275" cy="290" r="80"/>
			<path id="XMLID_64_" style="fill:#DEDDE0;" d="M275,210c44.184,0,80,35.817,80,80s-35.816,80-80,80"/>
		</g>
		<rect id="XMLID_677_" x="245" y="270" style="fill:#BDBCC1;" width="60" height="60"/>
		<rect id="XMLID_678_" x="245" y="270" style="fill:#ACABB1;" width="20" height="60"/>
		<rect id="XMLID_679_" x="285" y="270" style="fill:#818085;" width="20" height="60"/>
		<polygon id="XMLID_680_" style="fill:#565659;" points="285,260 285,240 265,240 265,260 235,260 235,280 315,280 315,260 		"/>
		<polygon id="XMLID_681_" style="fill:#2B2B2C;" points="285,260 285,240 265,240 265,260 275,260 275,280 315,280 315,260 		"/>
	</g>
</g>
<g>
</g>
<g>
</g>
<g>
</g>
<g>
</g>
<g>
</g>
<g>
</g>
<g>
</g>
<g>
</g>
<g>
</g>
<g>
</g>
<g>
</g>
<g>
</g>
<g>
</g>
<g>
</g>
<g>
</g>
</svg>
