<?xml version="1.0" encoding="iso-8859-1"?>
<!-- Generator: Adobe Illustrator 19.0.0, SVG Export Plug-In . SVG Version: 6.00 Build 0)  -->
<svg version="1.1" id="Layer_1" xmlns="http://www.w3.org/2000/svg" xmlns:xlink="http://www.w3.org/1999/xlink" x="0px" y="0px"
	 viewBox="0 0 370 370" style="enable-background:new 0 0 370 370;" xml:space="preserve">
<g id="XMLID_834_">
	<polygon id="XMLID_73_" style="fill:#78B9EB;" points="15,320 15,0 215,0 275,60 275,320 	"/>
	<polygon id="XMLID_845_" style="fill:#5A8BB0;" points="275,173.75 15,320 275,320 	"/>
	<rect id="XMLID_846_" x="75" y="120" style="fill:#DEDDE0;" width="140" height="20"/>
	<rect id="XMLID_847_" x="75" y="160" style="fill:#DEDDE0;" width="140" height="20"/>
	<rect id="XMLID_848_" x="75" y="80" style="fill:#FFFFFF;" width="70" height="20"/>
	<rect id="XMLID_849_" x="75" y="120" style="fill:#FFFFFF;" width="70" height="20"/>
	<rect id="XMLID_850_" x="75" y="160" style="fill:#FFFFFF;" width="70" height="20"/>
	<g id="XMLID_851_">
		<circle id="XMLID_65_" style="fill:#EEEEEF;" cx="275" cy="290" r="80"/>
		<path id="XMLID_64_" style="fill:#DEDDE0;" d="M275,210c44.183,0,80,35.816,80,80s-35.817,80-80,80"/>
	</g>
	<polygon id="XMLID_852_" style="fill:#FFDA44;" points="295,340 275,330 255,340 255,300 295,300 	"/>
	<polygon id="XMLID_853_" style="fill:#FF9811;" points="295,340 275,330 275,300 295,300 	"/>
	<polygon id="XMLID_854_" style="fill:#1E2E3B;" points="215,0 275,60 215,60 	"/>
	<path id="XMLID_855_" style="fill:#D80027;" d="M318,280c0,7.287-7.545,12.617-10.949,18.5c-3.513,6.07-4.475,15.231-10.545,18.744
		C290.621,320.648,282.287,317,275,317s-15.621,3.648-21.506,0.244c-6.07-3.513-7.032-12.674-10.545-18.744
		C239.545,292.617,232,287.287,232,280s7.545-12.617,10.949-18.5c3.513-6.07,4.475-15.231,10.545-18.744
		C259.379,239.352,267.713,243,275,243s15.621-3.648,21.506-0.243c6.07,3.512,7.032,12.673,10.545,18.743
		C310.455,267.383,318,272.713,318,280z"/>
	<path id="XMLID_856_" style="fill:#A2001D;" d="M307.051,261.5c-3.513-6.07-4.475-15.231-10.545-18.743
		C290.621,239.352,282.287,243,275,243v74c7.287,0,15.621,3.648,21.506,0.244c6.07-3.513,7.032-12.674,10.545-18.744
		C310.455,292.617,318,287.287,318,280S310.455,267.383,307.051,261.5z"/>
	<circle id="XMLID_857_" style="fill:#FF5023;" cx="275" cy="280" r="20"/>
</g>
<g>
</g>
<g>
</g>
<g>
</g>
<g>
</g>
<g>
</g>
<g>
</g>
<g>
</g>
<g>
</g>
<g>
</g>
<g>
</g>
<g>
</g>
<g>
</g>
<g>
</g>
<g>
</g>
<g>
</g>
</svg>
