<?xml version="1.0" encoding="iso-8859-1"?>
<!-- Generator: Adobe Illustrator 19.0.0, SVG Export Plug-In . SVG Version: 6.00 Build 0)  -->
<svg version="1.1" id="Layer_1" xmlns="http://www.w3.org/2000/svg" xmlns:xlink="http://www.w3.org/1999/xlink" x="0px" y="0px"
	 viewBox="0 0 400 400" style="enable-background:new 0 0 400 400;" xml:space="preserve">
<g id="XMLID_308_">
	<polygon id="XMLID_309_" style="fill:#1E2E3B;" points="160,65 140,35 0,35 0,105 160,115 320,105 320,65 	"/>
	<rect id="XMLID_311_" y="105" style="fill:#78B9EB;" width="320" height="180"/>
	<polygon id="XMLID_312_" style="fill:#5A8BB0;" points="320,285 0,285 320,105 	"/>
	<g id="XMLID_333_">
		<circle id="XMLID_61_" style="fill:#EEEEEF;" cx="320" cy="285" r="80"/>
		<path id="XMLID_60_" style="fill:#DEDDE0;" d="M320,205c44.183,0,80,35.817,80,80s-35.817,80-80,80"/>
	</g>
	<path id="XMLID_334_" style="fill:#78B9EB;" d="M350,265c-1.717,0-3.393,0.174-5.013,0.503C344.99,265.335,345,265.169,345,265
		c0-16.569-13.432-30-30-30s-30,13.431-30,30c0,3.54,0.617,6.935,1.744,10.088c-0.576-0.05-1.155-0.088-1.744-0.088
		c-11.046,0-20,8.954-20,20s8.954,20,20,20s52.282,0,65,0c13.808,0,25-11.192,25-25S363.808,265,350,265z"/>
	<path id="XMLID_337_" style="fill:#5A8BB0;" d="M350,265c-1.717,0-3.393,0.174-5.013,0.503C344.99,265.335,345,265.169,345,265
		c0-14.865-10.815-27.19-25.004-29.57V315H350c13.808,0,25-11.192,25-25S363.808,265,350,265z"/>
</g>
<g>
</g>
<g>
</g>
<g>
</g>
<g>
</g>
<g>
</g>
<g>
</g>
<g>
</g>
<g>
</g>
<g>
</g>
<g>
</g>
<g>
</g>
<g>
</g>
<g>
</g>
<g>
</g>
<g>
</g>
</svg>
