<?xml version="1.0" encoding="iso-8859-1"?>
<!-- Generator: Adobe Illustrator 19.0.0, SVG Export Plug-In . SVG Version: 6.00 Build 0)  -->
<svg version="1.1" id="Layer_1" xmlns="http://www.w3.org/2000/svg" xmlns:xlink="http://www.w3.org/1999/xlink" x="0px" y="0px"
	 viewBox="0 0 400 400" style="enable-background:new 0 0 400 400;" xml:space="preserve">
<g id="XMLID_29_">
	<polygon id="XMLID_30_" style="fill:#1E2E3B;" points="160,65 140,35 0,35 0,105 160,115 320,105 320,65 	"/>
	<rect id="XMLID_31_" y="105" style="fill:#78B9EB;" width="320" height="180"/>
	<polygon id="XMLID_71_" style="fill:#5A8BB0;" points="320,285 0,285 320,105 	"/>
	<g id="XMLID_85_">
		<circle id="XMLID_65_" style="fill:#EEEEEF;" cx="320" cy="285" r="80"/>
		<path id="XMLID_64_" style="fill:#DEDDE0;" d="M320,205c44.183,0,80,35.817,80,80s-35.817,80-80,80"/>
	</g>
	<g id="XMLID_86_">
		<path id="XMLID_62_" style="fill:#FFFFFF;" d="M263.75,285c0,0,25.184-37.5,56.25-37.5c31.065,0,56.25,37.5,56.25,37.5
			s-25.185,37.5-56.25,37.5C288.934,322.5,263.75,285,263.75,285z"/>
	</g>
	<g id="XMLID_87_">
		<circle id="XMLID_88_" style="fill:#78B9EB;" cx="320" cy="285" r="22.5"/>
		<path id="XMLID_89_" style="fill:#5A8BB0;" d="M320,262.5c12.426,0,22.5,10.074,22.5,22.5s-10.074,22.5-22.5,22.5"/>
	</g>
	<circle id="XMLID_90_" style="fill:#1E2E3B;" cx="320" cy="285" r="12.5"/>
</g>
<g>
</g>
<g>
</g>
<g>
</g>
<g>
</g>
<g>
</g>
<g>
</g>
<g>
</g>
<g>
</g>
<g>
</g>
<g>
</g>
<g>
</g>
<g>
</g>
<g>
</g>
<g>
</g>
<g>
</g>
</svg>
