<?xml version="1.0" encoding="iso-8859-1"?>
<!-- Generator: Adobe Illustrator 19.0.0, SVG Export Plug-In . SVG Version: 6.00 Build 0)  -->
<svg version="1.1" id="Layer_1" xmlns="http://www.w3.org/2000/svg" xmlns:xlink="http://www.w3.org/1999/xlink" x="0px" y="0px"
	 viewBox="0 0 400 400" style="enable-background:new 0 0 400 400;" xml:space="preserve">
<g id="XMLID_235_">
	<polygon id="XMLID_236_" style="fill:#1E2E3B;" points="160,65 140,35 0,35 0,105 160,115 320,105 320,65 	"/>
	<rect id="XMLID_237_" y="105" style="fill:#78B9EB;" width="320" height="180"/>
	<polygon id="XMLID_238_" style="fill:#5A8BB0;" points="320,285 0,285 320,105 	"/>
	<g id="XMLID_239_">
		<g id="XMLID_240_">
			<circle id="XMLID_66_" style="fill:#EEEEEF;" cx="320" cy="285" r="80"/>
			<path id="XMLID_65_" style="fill:#DEDDE0;" d="M320,205c44.183,0,80,35.817,80,80s-35.817,80-80,80"/>
		</g>
		<g id="XMLID_241_">
			<path id="XMLID_242_" style="fill:#5A8BB0;" d="M320,235c-10.982,0-20.928,4.429-28.156,11.594l10.615,10.615
				C306.975,252.755,313.171,250,320,250c13.785,0,25,11.215,25,25l8,4l7-4C360,252.909,342.092,235,320,235z"/>
			<rect id="XMLID_243_" x="280" y="275" style="fill:#FF5023;" width="80" height="50"/>
			<path id="XMLID_244_" style="fill:#1E2E3B;" d="M320,235v15c13.785,0,25,11.215,25,25l8,4l7-4C360,252.909,342.092,235,320,235z"
				/>
			<rect id="XMLID_245_" x="320" y="275" style="fill:#A2001D;" width="40" height="50"/>
			<circle id="XMLID_307_" style="fill:#1E2E3B;" cx="320" cy="300" r="10"/>
		</g>
	</g>
</g>
<g>
</g>
<g>
</g>
<g>
</g>
<g>
</g>
<g>
</g>
<g>
</g>
<g>
</g>
<g>
</g>
<g>
</g>
<g>
</g>
<g>
</g>
<g>
</g>
<g>
</g>
<g>
</g>
<g>
</g>
</svg>
