<?xml version="1.0" encoding="iso-8859-1"?>
<!-- Generator: Adobe Illustrator 19.0.0, SVG Export Plug-In . SVG Version: 6.00 Build 0)  -->
<svg version="1.1" id="Layer_1" xmlns="http://www.w3.org/2000/svg" xmlns:xlink="http://www.w3.org/1999/xlink" x="0px" y="0px"
	 viewBox="0 0 400 400" style="enable-background:new 0 0 400 400;" xml:space="preserve">
<g id="XMLID_197_">
	<polygon id="XMLID_221_" style="fill:#1E2E3B;" points="160,65 140,35 0,35 0,105 160,115 320,105 320,65 	"/>
	<rect id="XMLID_222_" y="105" style="fill:#78B9EB;" width="320" height="180"/>
	<polygon id="XMLID_223_" style="fill:#5A8BB0;" points="320,285 0,285 320,105 	"/>
	<g id="XMLID_224_">
		<g id="XMLID_225_">
			<circle id="XMLID_68_" style="fill:#EEEEEF;" cx="320" cy="285" r="80"/>
			<path id="XMLID_67_" style="fill:#DEDDE0;" d="M320,205c44.183,0,80,35.817,80,80s-35.817,80-80,80"/>
		</g>
		<g id="XMLID_226_">
			<path id="XMLID_227_" style="fill:#5A8BB0;" d="M320,235c-22.092,0-40,17.909-40,40v31h80v-31C360,252.909,342.092,235,320,235z
				 M345,291h-50v-16c0-13.785,11.215-25,25-25s25,11.215,25,25V291z"/>
			<path id="XMLID_230_" style="fill:#1E2E3B;" d="M320,235v15c13.785,0,25,11.215,25,25h15C360,252.909,342.092,235,320,235z"/>
			<rect id="XMLID_231_" x="280" y="275" style="fill:#91DC5A;" width="80" height="50"/>
			<rect id="XMLID_232_" x="320" y="275" style="fill:#4B925E;" width="40" height="50"/>
			<circle id="XMLID_233_" style="fill:#1E2E3B;" cx="320" cy="300" r="10"/>
		</g>
	</g>
</g>
<g>
</g>
<g>
</g>
<g>
</g>
<g>
</g>
<g>
</g>
<g>
</g>
<g>
</g>
<g>
</g>
<g>
</g>
<g>
</g>
<g>
</g>
<g>
</g>
<g>
</g>
<g>
</g>
<g>
</g>
</svg>
