<?xml version="1.0" encoding="iso-8859-1"?>
<!-- Generator: Adobe Illustrator 19.0.0, SVG Export Plug-In . SVG Version: 6.00 Build 0)  -->
<svg version="1.1" id="Layer_1" xmlns="http://www.w3.org/2000/svg" xmlns:xlink="http://www.w3.org/1999/xlink" x="0px" y="0px"
	 viewBox="0 0 340 340" style="enable-background:new 0 0 340 340;" xml:space="preserve">
<g id="XMLID_466_">
	<polygon id="XMLID_467_" style="fill:#1E2E3B;" points="170,120 150,90 10,90 10,160 170,170 330,160 330,120 	"/>
	<g id="XMLID_468_">
		<polygon id="XMLID_66_" style="fill:#EEEEEF;" points="40,320 40,0 240,0 300,60 300,320 		"/>
		<polygon id="XMLID_469_" style="fill:#DEDDE0;" points="240,0 170,0 170,320 300,320 300,60 		"/>
		<rect id="XMLID_470_" x="100" y="80" style="fill:#5A8BB0;" width="140" height="20"/>
		<rect id="XMLID_472_" x="100" y="120" style="fill:#5A8BB0;" width="140" height="20"/>
		<polygon id="XMLID_473_" style="fill:#1E2E3B;" points="240,0 300,60 240,60 		"/>
		<rect id="XMLID_474_" x="170" y="80" style="fill:#1E2E3B;" width="70" height="20"/>
		<rect id="XMLID_475_" x="170" y="120" style="fill:#1E2E3B;" width="70" height="20"/>
	</g>
	<rect id="XMLID_476_" x="10" y="160" style="fill:#78B9EB;" width="320" height="180"/>
	<polygon id="XMLID_477_" style="fill:#5A8BB0;" points="330,340 10,340 330,160 	"/>
</g>
<g>
</g>
<g>
</g>
<g>
</g>
<g>
</g>
<g>
</g>
<g>
</g>
<g>
</g>
<g>
</g>
<g>
</g>
<g>
</g>
<g>
</g>
<g>
</g>
<g>
</g>
<g>
</g>
<g>
</g>
</svg>
