<?xml version="1.0" encoding="iso-8859-1"?>
<!-- Generator: Adobe Illustrator 19.0.0, SVG Export Plug-In . SVG Version: 6.00 Build 0)  -->
<svg version="1.1" id="Layer_1" xmlns="http://www.w3.org/2000/svg" xmlns:xlink="http://www.w3.org/1999/xlink" x="0px" y="0px"
	 viewBox="0 0 320 320" style="enable-background:new 0 0 320 320;" xml:space="preserve">
<g id="XMLID_338_">
	<polygon id="XMLID_340_" style="fill:#1E2E3B;" points="160,65 140,35 0,35 0,105 160,115 320,105 320,65 	"/>
	<polygon id="XMLID_341_" style="fill:#78B9EB;" points="320,285 0,285 0,225 10,195 0,165 0,105 320,105 	"/>
	<polygon id="XMLID_348_" style="fill:#5A8BB0;" points="320,285 0,285 320,105 	"/>
	<g id="XMLID_350_">
		<rect id="XMLID_351_" y="165" style="fill:#EEEEEF;" width="320" height="60"/>
		<rect id="XMLID_352_" x="160" y="165" style="fill:#ACABB1;" width="160" height="60"/>
		<path id="XMLID_439_" style="fill:#CDCDD0;" d="M230,165h-40v60h40c16.568,0,30-13.432,30-30S246.568,165,230,165z"/>
		<circle id="XMLID_440_" style="fill:#1E2E3B;" cx="160" cy="195" r="50"/>
		<circle id="XMLID_441_" style="fill:#EEEEEF;" cx="160" cy="195" r="30"/>
		<path id="XMLID_443_" style="fill:#CDCDD0;" d="M160,165c16.568,0,30,13.432,30,30s-13.432,30-30,30"/>
	</g>
</g>
<g>
</g>
<g>
</g>
<g>
</g>
<g>
</g>
<g>
</g>
<g>
</g>
<g>
</g>
<g>
</g>
<g>
</g>
<g>
</g>
<g>
</g>
<g>
</g>
<g>
</g>
<g>
</g>
<g>
</g>
</svg>
