<?xml version="1.0" encoding="iso-8859-1"?>
<!-- Generator: Adobe Illustrator 19.0.0, SVG Export Plug-In . SVG Version: 6.00 Build 0)  -->
<svg version="1.1" id="Layer_1" xmlns="http://www.w3.org/2000/svg" xmlns:xlink="http://www.w3.org/1999/xlink" x="0px" y="0px"
	 viewBox="0 0 400 400" style="enable-background:new 0 0 400 400;" xml:space="preserve">
<g id="XMLID_91_">
	<polygon id="XMLID_92_" style="fill:#1E2E3B;" points="160,65 140,35 0,35 0,105 160,115 320,105 320,65 	"/>
	<rect id="XMLID_93_" y="105" style="fill:#78B9EB;" width="320" height="180"/>
	<polygon id="XMLID_102_" style="fill:#5A8BB0;" points="320,285 0,285 320,105 	"/>
	<g id="XMLID_103_">
		<circle id="XMLID_62_" style="fill:#EEEEEF;" cx="320" cy="285" r="80"/>
		<path id="XMLID_61_" style="fill:#DEDDE0;" d="M320,205c44.183,0,80,35.817,80,80s-35.817,80-80,80"/>
	</g>
	<g id="XMLID_104_">
		<polygon id="XMLID_105_" style="fill:#91DC5A;" points="360,285 320,235 280,285 305,285 305,330 335,330 335,285 		"/>
		<polygon id="XMLID_106_" style="fill:#4B925E;" points="360,285 320,235 320,330 335,330 335,285 		"/>
	</g>
</g>
<g>
</g>
<g>
</g>
<g>
</g>
<g>
</g>
<g>
</g>
<g>
</g>
<g>
</g>
<g>
</g>
<g>
</g>
<g>
</g>
<g>
</g>
<g>
</g>
<g>
</g>
<g>
</g>
<g>
</g>
</svg>
