<?xml version="1.0" encoding="iso-8859-1"?>
<!-- Generator: Adobe Illustrator 19.0.0, SVG Export Plug-In . SVG Version: 6.00 Build 0)  -->
<svg version="1.1" id="Layer_1" xmlns="http://www.w3.org/2000/svg" xmlns:xlink="http://www.w3.org/1999/xlink" x="0px" y="0px"
	 viewBox="0 0 400 400" style="enable-background:new 0 0 400 400;" xml:space="preserve">
<g id="XMLID_2_">
	<polygon id="XMLID_4_" style="fill:#1E2E3B;" points="160,65 140,35 0,35 0,105 160,115 320,105 320,65 	"/>
	<rect id="XMLID_5_" y="105" style="fill:#78B9EB;" width="320" height="180"/>
	<polygon id="XMLID_6_" style="fill:#5A8BB0;" points="320,285 0,285 320,105 	"/>
	<g id="XMLID_7_">
		<circle id="XMLID_61_" style="fill:#EEEEEF;" cx="320" cy="285" r="80"/>
		<path id="XMLID_60_" style="fill:#DEDDE0;" d="M320,205c44.183,0,80,35.817,80,80s-35.817,80-80,80"/>
	</g>
	<polygon id="XMLID_8_" style="fill:#FFDA44;" points="320,235 334.622,264.626 367.316,269.377 343.658,292.438 349.243,325 
		320,309.626 290.757,325 296.342,292.438 272.684,269.377 305.378,264.626 	"/>
	<polygon id="XMLID_9_" style="fill:#FF9811;" points="320,235 334.622,264.626 367.316,269.377 343.658,292.438 349.243,325 
		320,309.626 	"/>
</g>
<g>
</g>
<g>
</g>
<g>
</g>
<g>
</g>
<g>
</g>
<g>
</g>
<g>
</g>
<g>
</g>
<g>
</g>
<g>
</g>
<g>
</g>
<g>
</g>
<g>
</g>
<g>
</g>
<g>
</g>
</svg>
