<?xml version="1.0" encoding="iso-8859-1"?>
<!-- Generator: Adobe Illustrator 19.0.0, SVG Export Plug-In . SVG Version: 6.00 Build 0)  -->
<svg version="1.1" id="Layer_1" xmlns="http://www.w3.org/2000/svg" xmlns:xlink="http://www.w3.org/1999/xlink" x="0px" y="0px"
	 viewBox="0 0 320 320" style="enable-background:new 0 0 320 320;" xml:space="preserve">
<g id="XMLID_452_">
	<g id="XMLID_453_">
		<polygon id="XMLID_454_" style="fill:#1E2E3B;" points="160,55 140,25 0,25 0,55 160,95 320,95 320,55 		"/>
		<polygon id="XMLID_455_" style="fill:#5A8BB0;" points="160,85 140,55 0,55 0,85 160,125 320,125 320,85 		"/>
		<polygon id="XMLID_458_" style="fill:#EEEEEF;" points="160,115 140,85 0,85 0,155 160,165 		"/>
		<rect id="XMLID_459_" y="115" style="fill:#78B9EB;" width="320" height="180"/>
		<polygon id="XMLID_460_" style="fill:#5A8BB0;" points="320,295 0,295 320,115 		"/>
	</g>
	<g id="XMLID_461_">
		<rect id="XMLID_462_" x="100" y="171.266" style="fill:#FFFFFF;" width="120" height="67.459"/>
		<rect id="XMLID_463_" x="120" y="195.308" style="fill:#5A8BB0;" width="80" height="19.375"/>
		<rect id="XMLID_464_" x="160" y="195.308" style="fill:#1E2E3B;" width="40" height="19.375"/>
	</g>
</g>
<g>
</g>
<g>
</g>
<g>
</g>
<g>
</g>
<g>
</g>
<g>
</g>
<g>
</g>
<g>
</g>
<g>
</g>
<g>
</g>
<g>
</g>
<g>
</g>
<g>
</g>
<g>
</g>
<g>
</g>
</svg>
