<?xml version="1.0" encoding="iso-8859-1"?>
<!-- Generator: Adobe Illustrator 19.0.0, SVG Export Plug-In . SVG Version: 6.00 Build 0)  -->
<svg version="1.1" id="Layer_1" xmlns="http://www.w3.org/2000/svg" xmlns:xlink="http://www.w3.org/1999/xlink" x="0px" y="0px"
	 viewBox="0 0 400 400" style="enable-background:new 0 0 400 400;" xml:space="preserve">
<g id="XMLID_10_">
	<g id="XMLID_11_">
		<polygon id="XMLID_12_" style="fill:#1E2E3B;" points="160,65 140,35 0,35 0,105 160,115 320,105 320,65 		"/>
		<rect id="XMLID_13_" y="105" style="fill:#78B9EB;" width="320" height="180"/>
		<polygon id="XMLID_14_" style="fill:#5A8BB0;" points="320,285 0,285 320,105 		"/>
	</g>
	<g id="XMLID_15_">
		<circle id="XMLID_61_" style="fill:#EEEEEF;" cx="320" cy="285" r="80"/>
		<path id="XMLID_60_" style="fill:#DEDDE0;" d="M320,205c44.183,0,80,35.817,80,80s-35.817,80-80,80"/>
	</g>
	<polygon id="XMLID_58_" style="fill:#FF5023;" points="362.427,263.787 341.212,242.573 319.999,263.786 298.787,242.573 
		277.573,263.787 298.786,285 277.573,306.213 298.787,327.427 320,306.214 341.213,327.427 362.426,306.213 341.213,285 	"/>
	<polygon id="XMLID_57_" style="fill:#A2001D;" points="362.427,263.787 341.212,242.573 319.999,263.786 320,306.214 
		341.213,327.427 362.426,306.213 341.213,285 	"/>
</g>
<g>
</g>
<g>
</g>
<g>
</g>
<g>
</g>
<g>
</g>
<g>
</g>
<g>
</g>
<g>
</g>
<g>
</g>
<g>
</g>
<g>
</g>
<g>
</g>
<g>
</g>
<g>
</g>
<g>
</g>
</svg>
