<?xml version="1.0" encoding="iso-8859-1"?>
<!-- Generator: Adobe Illustrator 19.0.0, SVG Export Plug-In . SVG Version: 6.00 Build 0)  -->
<svg version="1.1" id="Layer_1" xmlns="http://www.w3.org/2000/svg" xmlns:xlink="http://www.w3.org/1999/xlink" x="0px" y="0px"
	 viewBox="0 0 370 370" style="enable-background:new 0 0 370 370;" xml:space="preserve">
<g id="XMLID_783_">
	<polygon id="XMLID_70_" style="fill:#78B9EB;" points="15,320 15,0 215,0 275,60 275,320 	"/>
	<polygon id="XMLID_784_" style="fill:#5A8BB0;" points="275,173.75 15,320 275,320 	"/>
	<rect id="XMLID_785_" x="75" y="120" style="fill:#DEDDE0;" width="140" height="20"/>
	<rect id="XMLID_786_" x="75" y="160" style="fill:#DEDDE0;" width="140" height="20"/>
	<rect id="XMLID_787_" x="75" y="80" style="fill:#FFFFFF;" width="70" height="20"/>
	<rect id="XMLID_788_" x="75" y="120" style="fill:#FFFFFF;" width="70" height="20"/>
	<rect id="XMLID_789_" x="75" y="160" style="fill:#FFFFFF;" width="70" height="20"/>
	<g id="XMLID_790_">
		<circle id="XMLID_63_" style="fill:#EEEEEF;" cx="275" cy="290" r="80"/>
		<path id="XMLID_62_" style="fill:#DEDDE0;" d="M275,210c44.183,0,80,35.817,80,80s-35.817,80-80,80"/>
	</g>
	<polygon id="XMLID_791_" style="fill:#1E2E3B;" points="215,0 275,60 215,60 	"/>
	
		<rect id="XMLID_59_" x="248.481" y="275.988" transform="matrix(0.7071 0.7071 -0.7071 0.7071 294.4475 -105.851)" style="fill:#5A8BB0;" width="53.032" height="53.032"/>
	<polygon id="XMLID_58_" style="fill:#1E2E3B;" points="275,265 312.5,302.5 275,340 	"/>
	
		<rect id="XMLID_57_" x="248.482" y="250.988" transform="matrix(0.7071 0.7071 -0.7071 0.7071 276.7701 -113.1738)" style="fill:#78B9EB;" width="53.032" height="53.032"/>
</g>
<g>
</g>
<g>
</g>
<g>
</g>
<g>
</g>
<g>
</g>
<g>
</g>
<g>
</g>
<g>
</g>
<g>
</g>
<g>
</g>
<g>
</g>
<g>
</g>
<g>
</g>
<g>
</g>
<g>
</g>
</svg>
