<?xml version="1.0" encoding="iso-8859-1"?>
<!-- Generator: Adobe Illustrator 19.0.0, SVG Export Plug-In . SVG Version: 6.00 Build 0)  -->
<svg version="1.1" id="Layer_1" xmlns="http://www.w3.org/2000/svg" xmlns:xlink="http://www.w3.org/1999/xlink" x="0px" y="0px"
	 viewBox="0 0 370 370" style="enable-background:new 0 0 370 370;" xml:space="preserve">
<g id="XMLID_756_">
	<polygon id="XMLID_75_" style="fill:#78B9EB;" points="15,320 15,0 215,0 275,60 275,320 	"/>
	<polygon id="XMLID_757_" style="fill:#5A8BB0;" points="275,173.75 15,320 275,320 	"/>
	<g id="XMLID_758_">
		<rect id="XMLID_759_" x="75" y="80" style="fill:#FFFFFF;" width="70" height="20"/>
	</g>
	<g id="XMLID_760_">
		<rect id="XMLID_761_" x="75" y="120" style="fill:#FFFFFF;" width="140" height="20"/>
		<rect id="XMLID_762_" x="145" y="120" style="fill:#DEDDE0;" width="70" height="20"/>
	</g>
	<g id="XMLID_763_">
		<rect id="XMLID_764_" x="75" y="160" style="fill:#FFFFFF;" width="140" height="20"/>
		<rect id="XMLID_765_" x="145" y="160" style="fill:#DEDDE0;" width="70" height="20"/>
	</g>
	<g id="XMLID_766_">
		<circle id="XMLID_64_" style="fill:#EEEEEF;" cx="275" cy="290" r="80"/>
		<path id="XMLID_63_" style="fill:#DEDDE0;" d="M275,210c44.183,0,80,35.817,80,80s-35.817,80-80,80"/>
	</g>
	<polygon id="XMLID_767_" style="fill:#1E2E3B;" points="215,0 275,60 215,60 	"/>
	<rect id="XMLID_768_" x="235" y="280" style="fill:#78B9EB;" width="20" height="40"/>
	<rect id="XMLID_769_" x="265" y="250" style="fill:#5A8BB0;" width="20" height="70"/>
	<rect id="XMLID_770_" x="265" y="250" style="fill:#78B9EB;" width="10" height="70"/>
	<rect id="XMLID_771_" x="295" y="270" style="fill:#5A8BB0;" width="20" height="50"/>
</g>
<g>
</g>
<g>
</g>
<g>
</g>
<g>
</g>
<g>
</g>
<g>
</g>
<g>
</g>
<g>
</g>
<g>
</g>
<g>
</g>
<g>
</g>
<g>
</g>
<g>
</g>
<g>
</g>
<g>
</g>
</svg>
