<?xml version="1.0" encoding="iso-8859-1"?>
<!-- Generator: Adobe Illustrator 19.0.0, SVG Export Plug-In . SVG Version: 6.00 Build 0)  -->
<svg version="1.1" id="Layer_1" xmlns="http://www.w3.org/2000/svg" xmlns:xlink="http://www.w3.org/1999/xlink" x="0px" y="0px"
	 viewBox="0 0 320 320" style="enable-background:new 0 0 320 320;" xml:space="preserve">
<g id="XMLID_792_">
	<polygon id="XMLID_72_" style="fill:#78B9EB;" points="30,320 30,279.999 40,250 30,220 30,0 230,0 290,60 290,320 	"/>
	<polygon id="XMLID_793_" style="fill:#5A8BB0;" points="290,173.75 30,320 290,320 	"/>
	<rect id="XMLID_794_" x="90" y="120" style="fill:#DEDDE0;" width="140" height="20"/>
	<rect id="XMLID_795_" x="90" y="160" style="fill:#DEDDE0;" width="140" height="20"/>
	<rect id="XMLID_796_" x="90" y="80" style="fill:#FFFFFF;" width="70" height="20"/>
	<rect id="XMLID_797_" x="90" y="120" style="fill:#FFFFFF;" width="70" height="20"/>
	<rect id="XMLID_798_" x="90" y="160" style="fill:#FFFFFF;" width="70" height="20"/>
	<polygon id="XMLID_799_" style="fill:#1E2E3B;" points="230,0 290,60 230,60 	"/>
	<g id="XMLID_800_">
		<rect id="XMLID_801_" x="30" y="220" style="fill:#EEEEEF;" width="260" height="60"/>
		<rect id="XMLID_802_" x="160" y="220" style="fill:#ACABB1;" width="130" height="60"/>
		<path id="XMLID_803_" style="fill:#CDCDD0;" d="M230,220h-40v60h40c16.568,0,30-13.432,30-30S246.568,220,230,220z"/>
		<circle id="XMLID_804_" style="fill:#1E2E3B;" cx="160" cy="250" r="50"/>
		<circle id="XMLID_805_" style="fill:#EEEEEF;" cx="160" cy="250" r="30"/>
		<path id="XMLID_806_" style="fill:#CDCDD0;" d="M160,220c16.568,0,30,13.432,30,30s-13.432,30-30,30"/>
	</g>
</g>
<g>
</g>
<g>
</g>
<g>
</g>
<g>
</g>
<g>
</g>
<g>
</g>
<g>
</g>
<g>
</g>
<g>
</g>
<g>
</g>
<g>
</g>
<g>
</g>
<g>
</g>
<g>
</g>
<g>
</g>
</svg>
